<?xml version="1.0" encoding="UTF-8" standalone="no"?>
<!DOCTYPE svg PUBLIC "-//W3C//DTD SVG 1.0//EN" "http://www.w3.org/TR/2001/PR-SVG-20010719/DTD/svg10.dtd">
<svg width="40cm" height="31cm" viewBox="24 -17312 781 609" xmlns="http://www.w3.org/2000/svg" xmlns:xlink="http://www.w3.org/1999/xlink">
  <g>
    <path style="fill: #ffffff" d="M 459.296 -17274.7 L 397.296,-17274.7 C 388.736,-17274.7 381.796,-17282.7 381.796,-17292.4 C 381.796,-17302.2 388.736,-17310.1 397.296,-17310.1 L 459.296,-17310.1 C 467.857,-17310.1 474.796,-17302.2 474.796,-17292.4 C 474.796,-17282.7 467.857,-17274.7 459.296,-17274.7z"/>
    <path style="fill: none; fill-opacity:0; stroke-width: 2; stroke: #000000" d="M 459.296 -17274.7 L 397.296,-17274.7 C 388.736,-17274.7 381.796,-17282.7 381.796,-17292.4 C 381.796,-17302.2 388.736,-17310.1 397.296,-17310.1 L 459.296,-17310.1 C 467.857,-17310.1 474.796,-17302.2 474.796,-17292.4 C 474.796,-17282.7 467.857,-17274.7 459.296,-17274.7"/>
    <text font-size="12.8" style="fill: #000000;text-anchor:middle;font-family:sans-serif;font-style:normal;font-weight:normal" x="428.296" y="-17287.6">
      <tspan x="428.296" y="-17287.6">Mulait</tspan>
    </text>
  </g>
  <text font-size="12.8" style="fill: #000000;text-anchor:start;font-family:sans-serif;font-style:normal;font-weight:normal" x="428.296" y="-17292.4">
    <tspan x="428.296" y="-17292.4"></tspan>
  </text>
  <text font-size="12.8" style="fill: #000000;text-anchor:start;font-family:sans-serif;font-style:normal;font-weight:normal" x="428.296" y="-17292.4">
    <tspan x="428.296" y="-17292.4"></tspan>
  </text>
  <g>
    <polygon style="fill: #ffffff" points="391.627,-17223 478.796,-17223 464.966,-17185 377.796,-17185 "/>
    <polygon style="fill: none; fill-opacity:0; stroke-width: 2; stroke: #000000" points="391.627,-17223 478.796,-17223 464.966,-17185 377.796,-17185 "/>
    <text font-size="12.8" style="fill: #000000;text-anchor:middle;font-family:sans-serif;font-style:normal;font-weight:normal" x="428.296" y="-17199.2">
      <tspan x="428.296" y="-17199.2">a,b,c</tspan>
    </text>
  </g>
  <text font-size="12.8" style="fill: #000000;text-anchor:start;font-family:sans-serif;font-style:normal;font-weight:normal" x="428.296" y="-17204">
    <tspan x="428.296" y="-17204"></tspan>
  </text>
  <g>
    <polygon style="fill: #ffffff" points="428.296,-17134.6 491.001,-17100.3 428.296,-17065.9 365.592,-17100.3 "/>
    <polygon style="fill: none; fill-opacity:0; stroke-width: 2; stroke: #000000" points="428.296,-17134.6 491.001,-17100.3 428.296,-17065.9 365.592,-17100.3 "/>
    <text font-size="12.8" style="fill: #000000;text-anchor:middle;font-family:sans-serif;font-style:normal;font-weight:normal" x="428.296" y="-17095.5">
      <tspan x="428.296" y="-17095.5">a&gt;0</tspan>
    </text>
  </g>
  <g>
    <rect style="fill: #ffffff" x="349.296" y="-17026.9" width="158" height="50"/>
    <rect style="fill: none; fill-opacity:0; stroke-width: 2; stroke: #000000" x="349.296" y="-17026.9" width="158" height="50"/>
    <text font-size="12.8" style="fill: #000000;text-anchor:middle;font-family:sans-serif;font-style:normal;font-weight:normal" x="428.296" y="-16997.1">
      <tspan x="428.296" y="-16997.1">D=b^2-4*a*c</tspan>
    </text>
  </g>
  <g>
    <polygon style="fill: #ffffff" points="428.296,-16945.7 498.634,-16907.5 428.296,-16869.3 357.959,-16907.5 "/>
    <polygon style="fill: none; fill-opacity:0; stroke-width: 2; stroke: #000000" points="428.296,-16945.7 498.634,-16907.5 428.296,-16869.3 357.959,-16907.5 "/>
    <text font-size="12.8" style="fill: #000000;text-anchor:middle;font-family:sans-serif;font-style:normal;font-weight:normal" x="428.296" y="-16902.7">
      <tspan x="428.296" y="-16902.7">D&gt;=0</tspan>
    </text>
  </g>
  <g>
    <rect style="fill: #ffffff" x="25.4852" y="-16933" width="204.05" height="45"/>
    <rect style="fill: none; fill-opacity:0; stroke-width: 2; stroke: #000000" x="25.4852" y="-16933" width="204.05" height="45"/>
    <text font-size="12.8" style="fill: #000000;text-anchor:middle;font-family:sans-serif;font-style:normal;font-weight:normal" x="127.51" y="-16905.7">
      <tspan x="127.51" y="-16905.7">x1=(-b+sqrt(b^2-4*a*c))/(2*a)</tspan>
    </text>
  </g>
  <g>
    <rect style="fill: #ffffff" x="27.6121" y="-16837.3" width="199.4" height="48.3"/>
    <rect style="fill: none; fill-opacity:0; stroke-width: 2; stroke: #000000" x="27.6121" y="-16837.3" width="199.4" height="48.3"/>
    <text font-size="12.8" style="fill: #000000;text-anchor:middle;font-family:sans-serif;font-style:normal;font-weight:normal" x="127.312" y="-16808.3">
      <tspan x="127.312" y="-16808.3">x2=(-b-sqrt(b^2-4*a*c))/(2*a)</tspan>
    </text>
  </g>
  <g>
    <polygon style="fill: #ffffff" points="388.017,-16834.3 482.406,-16834.3 468.575,-16796.3 374.187,-16796.3 "/>
    <polygon style="fill: none; fill-opacity:0; stroke-width: 2; stroke: #000000" points="388.017,-16834.3 482.406,-16834.3 468.575,-16796.3 374.187,-16796.3 "/>
    <text font-size="12.8" style="fill: #000000;text-anchor:middle;font-family:sans-serif;font-style:normal;font-weight:normal" x="428.296" y="-16810.5">
      <tspan x="428.296" y="-16810.5">X1,X2</tspan>
    </text>
  </g>
  <g>
    <path style="fill: #ffffff" d="M 393.809 -16743.4 L 462.783,-16743.4 C 472.307,-16743.4 480.027,-16734.6 480.027,-16723.6 C 480.027,-16712.7 472.307,-16703.9 462.783,-16703.9 L 393.809,-16703.9 C 384.286,-16703.9 376.566,-16712.7 376.566,-16723.6 C 376.566,-16734.6 384.286,-16743.4 393.809,-16743.4z"/>
    <path style="fill: none; fill-opacity:0; stroke-width: 2; stroke: #000000" d="M 393.809 -16743.4 L 462.783,-16743.4 C 472.307,-16743.4 480.027,-16734.6 480.027,-16723.6 C 480.027,-16712.7 472.307,-16703.9 462.783,-16703.9 L 393.809,-16703.9 C 384.286,-16703.9 376.566,-16712.7 376.566,-16723.6 C 376.566,-16734.6 384.286,-16743.4 393.809,-16743.4"/>
    <text font-size="12.8" style="fill: #000000;text-anchor:middle;font-family:sans-serif;font-style:normal;font-weight:normal" x="428.296" y="-16718.8">
      <tspan x="428.296" y="-16718.8">Selesai</tspan>
    </text>
  </g>
  <text font-size="12.8" style="fill: #000000;text-anchor:start;font-family:sans-serif;font-style:normal;font-weight:normal" x="183.19" y="-17120.5">
    <tspan x="183.19" y="-17120.5"></tspan>
  </text>
  <g>
    <polygon style="fill: #ffffff" points="648.036,-16928.1 803.607,-16928.1 789.048,-16888.1 633.478,-16888.1 "/>
    <polygon style="fill: none; fill-opacity:0; stroke-width: 2; stroke: #000000" points="648.036,-16928.1 803.607,-16928.1 789.048,-16888.1 633.478,-16888.1 "/>
    <text font-size="12.8" style="fill: #000000;text-anchor:middle;font-family:sans-serif;font-style:normal;font-weight:normal" x="718.542" y="-16903.3">
      <tspan x="718.542" y="-16903.3">''akar imajiner"</tspan>
    </text>
  </g>
  <text font-size="12.8" style="fill: #000000;text-anchor:start;font-family:sans-serif;font-style:normal;font-weight:normal" x="98.278" y="-17101.3">
    <tspan x="98.278" y="-17101.3"></tspan>
  </text>
  <text font-size="12.8" style="fill: #000000;text-anchor:start;font-family:sans-serif;font-style:normal;font-weight:normal" x="104.164" y="-17299.3">
    <tspan x="104.164" y="-17299.3"></tspan>
  </text>
  <text font-size="12.8" style="fill: #000000;text-anchor:start;font-family:sans-serif;font-style:normal;font-weight:normal" x="-190.661" y="-17261.1">
    <tspan x="-190.661" y="-17261.1"></tspan>
  </text>
  <text font-size="12.8" style="fill: #000000;text-anchor:start;font-family:sans-serif;font-style:normal;font-weight:normal" x="-188.48" y="-17255.6">
    <tspan x="-188.48" y="-17255.6"></tspan>
  </text>
  <text font-size="12.8" style="fill: #000000;text-anchor:start;font-family:sans-serif;font-style:normal;font-weight:normal" x="-53.7295" y="-17245.5">
    <tspan x="-53.7295" y="-17245.5"></tspan>
    <tspan x="-53.7295" y="-17229.5"></tspan>
  </text>
  <text font-size="12.8" style="fill: #000000;text-anchor:start;font-family:sans-serif;font-style:normal;font-weight:normal" x="-44.1875" y="-17249.2">
    <tspan x="-44.1875" y="-17249.2"></tspan>
    <tspan x="-44.1875" y="-17233.2"></tspan>
  </text>
  <text font-size="12.8" style="fill: #000000;text-anchor:start;font-family:sans-serif;font-style:normal;font-weight:normal" x="-247.022" y="-17226.3">
    <tspan x="-247.022" y="-17226.3"></tspan>
  </text>
  <text font-size="12.8" style="fill: #000000;text-anchor:start;font-family:sans-serif;font-style:normal;font-weight:normal" x="41.2778" y="-17183.4">
    <tspan x="41.2778" y="-17183.4">input a,b,c</tspan>
    <tspan x="41.2778" y="-17167.4">D=b^2-4*a*c</tspan>
    <tspan x="41.2778" y="-17151.4">If  D&gt;!=0 is true (akar imaginer)</tspan>
    <tspan x="41.2778" y="-17135.4">If  D&gt;!=0 is false (lanjutkan berikutnya)</tspan>
    <tspan x="41.2778" y="-17119.4">X1=(-b+sqrt(b^2-4*a*c))</tspan>
    <tspan x="41.2778" y="-17103.4">X2=(-b-sqrt(b^2-4*a*c))</tspan>
    <tspan x="41.2778" y="-17087.4">Print X1;X2</tspan>
  </text>
  <g>
    <line style="fill: none; fill-opacity:0; stroke-width: 2; stroke: #000000" x1="428.296" y1="-17292.4" x2="428.296" y2="-17292.4"/>
    <polygon style="fill: #ffffff" points="417.296,-17287.4 428.296,-17292.4 417.296,-17297.4 "/>
    <polygon style="fill: #ffffff" points="428.296,-17297.4 417.296,-17292.4 428.296,-17287.4 "/>
    <polygon style="fill: none; fill-opacity:0; stroke-width: 2; stroke: #000000" points="418.296,-17287.4 428.296,-17292.4 418.296,-17297.4 "/>
    <polygon style="fill: none; fill-opacity:0; stroke-width: 2; stroke: #000000" points="426.296,-17297.4 416.296,-17292.4 426.296,-17287.4 "/>
  </g>
  <g>
    <line style="fill: none; fill-opacity:0; stroke-width: 2; stroke: #000000" x1="428.296" y1="-17273.7" x2="428.296" y2="-17248.2"/>
    <polygon style="fill: #ffffff" points="423.296,-17237.2 428.296,-17226.2 433.296,-17237.2 "/>
    <polygon style="fill: #ffffff" points="423.296,-17248.2 428.296,-17237.2 433.296,-17248.2 "/>
    <polygon style="fill: none; fill-opacity:0; stroke-width: 2; stroke: #000000" points="423.296,-17236.2 428.296,-17226.2 433.296,-17236.2 "/>
    <polygon style="fill: none; fill-opacity:0; stroke-width: 2; stroke: #000000" points="423.296,-17248.2 428.296,-17238.2 433.296,-17248.2 "/>
  </g>
  <g>
    <line style="fill: none; fill-opacity:0; stroke-width: 2; stroke: #000000" x1="428.296" y1="-17184" x2="428.296" y2="-17158.9"/>
    <polygon style="fill: #ffffff" points="423.296,-17147.9 428.296,-17136.9 433.296,-17147.9 "/>
    <polygon style="fill: #ffffff" points="423.296,-17158.9 428.296,-17147.9 433.296,-17158.9 "/>
    <polygon style="fill: none; fill-opacity:0; stroke-width: 2; stroke: #000000" points="423.296,-17146.9 428.296,-17136.9 433.296,-17146.9 "/>
    <polygon style="fill: none; fill-opacity:0; stroke-width: 2; stroke: #000000" points="423.296,-17158.9 428.296,-17148.9 433.296,-17158.9 "/>
  </g>
  <g>
    <line style="fill: none; fill-opacity:0; stroke-width: 2; stroke: #000000" x1="428.296" y1="-17064.9" x2="428.296" y2="-17052.1"/>
    <polygon style="fill: #ffffff" points="423.296,-17041.1 428.296,-17030.1 433.296,-17041.1 "/>
    <polygon style="fill: #ffffff" points="423.296,-17052.1 428.296,-17041.1 433.296,-17052.1 "/>
    <polygon style="fill: none; fill-opacity:0; stroke-width: 2; stroke: #000000" points="423.296,-17040.1 428.296,-17030.1 433.296,-17040.1 "/>
    <polygon style="fill: none; fill-opacity:0; stroke-width: 2; stroke: #000000" points="423.296,-17052.1 428.296,-17042.1 433.296,-17052.1 "/>
  </g>
  <g>
    <line style="fill: none; fill-opacity:0; stroke-width: 2; stroke: #000000" x1="428.296" y1="-16975.9" x2="428.296" y2="-16970.9"/>
    <polygon style="fill: #ffffff" points="423.296,-16959.9 428.296,-16948.9 433.296,-16959.9 "/>
    <polygon style="fill: #ffffff" points="423.296,-16970.9 428.296,-16959.9 433.296,-16970.9 "/>
    <polygon style="fill: none; fill-opacity:0; stroke-width: 2; stroke: #000000" points="423.296,-16958.9 428.296,-16948.9 433.296,-16958.9 "/>
    <polygon style="fill: none; fill-opacity:0; stroke-width: 2; stroke: #000000" points="423.296,-16970.9 428.296,-16960.9 433.296,-16970.9 "/>
  </g>
  <g>
    <line style="fill: none; fill-opacity:0; stroke-width: 2; stroke: #000000" x1="357.414" y1="-16908.2" x2="254.736" y2="-16909.2"/>
    <polygon style="fill: #ffffff" points="243.787,-16914.3 232.738,-16909.5 243.687,-16904.3 "/>
    <polygon style="fill: #ffffff" points="254.786,-16914.2 243.737,-16909.3 254.687,-16904.2 "/>
    <polygon style="fill: none; fill-opacity:0; stroke-width: 2; stroke: #000000" points="242.787,-16914.4 232.738,-16909.5 242.687,-16904.4 "/>
    <polygon style="fill: none; fill-opacity:0; stroke-width: 2; stroke: #000000" points="254.786,-16914.2 244.737,-16909.3 254.687,-16904.2 "/>
  </g>
  <g>
    <line style="fill: none; fill-opacity:0; stroke-width: 2; stroke: #000000" x1="127.462" y1="-16887" x2="127.413" y2="-16862.5"/>
    <polygon style="fill: #ffffff" points="122.39,-16851.5 127.368,-16840.5 132.39,-16851.5 "/>
    <polygon style="fill: #ffffff" points="122.413,-16862.5 127.39,-16851.5 132.413,-16862.5 "/>
    <polygon style="fill: none; fill-opacity:0; stroke-width: 2; stroke: #000000" points="122.388,-16850.5 127.368,-16840.5 132.388,-16850.5 "/>
    <polygon style="fill: none; fill-opacity:0; stroke-width: 2; stroke: #000000" points="122.413,-16862.5 127.392,-16852.5 132.413,-16862.5 "/>
  </g>
  <g>
    <line style="fill: none; fill-opacity:0; stroke-width: 2; stroke: #000000" x1="228.002" y1="-16813.9" x2="356.105" y2="-16814.8"/>
    <polygon style="fill: #ffffff" points="367.141,-16809.9 378.104,-16815 367.068,-16819.9 "/>
    <polygon style="fill: #ffffff" points="356.141,-16809.8 367.104,-16814.9 356.068,-16819.8 "/>
    <polygon style="fill: none; fill-opacity:0; stroke-width: 2; stroke: #000000" points="368.141,-16809.9 378.104,-16815 368.068,-16819.9 "/>
    <polygon style="fill: none; fill-opacity:0; stroke-width: 2; stroke: #000000" points="356.141,-16809.8 366.104,-16814.9 356.068,-16819.8 "/>
  </g>
  <g>
    <line style="fill: none; fill-opacity:0; stroke-width: 2; stroke: #000000" x1="498.634" y1="-16907.5" x2="616.521" y2="-16908"/>
    <polygon style="fill: #ffffff" points="627.543,-16903.1 638.521,-16908.1 627.499,-16913.1 "/>
    <polygon style="fill: #ffffff" points="616.543,-16903 627.521,-16908.1 616.499,-16913 "/>
    <polygon style="fill: none; fill-opacity:0; stroke-width: 2; stroke: #000000" points="628.543,-16903.1 638.521,-16908.1 628.499,-16913.1 "/>
    <polygon style="fill: none; fill-opacity:0; stroke-width: 2; stroke: #000000" points="616.543,-16903 626.521,-16908.1 616.499,-16913 "/>
  </g>
  <g>
    <line style="fill: none; fill-opacity:0; stroke-width: 2; stroke: #000000" x1="428.296" y1="-16795.3" x2="428.296" y2="-16768.3"/>
    <polygon style="fill: #ffffff" points="423.296,-16757.3 428.296,-16746.3 433.296,-16757.3 "/>
    <polygon style="fill: #ffffff" points="423.296,-16768.3 428.296,-16757.3 433.296,-16768.3 "/>
    <polygon style="fill: none; fill-opacity:0; stroke-width: 2; stroke: #000000" points="423.296,-16756.3 428.296,-16746.3 433.296,-16756.3 "/>
    <polygon style="fill: none; fill-opacity:0; stroke-width: 2; stroke: #000000" points="423.296,-16768.3 428.296,-16758.3 433.296,-16768.3 "/>
  </g>
  <g>
    <polyline style="fill: none; fill-opacity:0; stroke-width: 2; stroke: #000000" points="718.542,-16887.1 718.542,-16767.7 428.296,-16767.7 428.296,-16745.5 "/>
    <polygon style="fill: #ffffff" points="423.296,-16778.5 428.296,-16767.5 433.296,-16778.5 "/>
    <polygon style="fill: #ffffff" points="433.296,-16767.5 428.296,-16778.5 423.296,-16767.5 "/>
    <polygon style="fill: none; fill-opacity:0; stroke-width: 2; stroke: #000000" points="423.296,-16777.5 428.296,-16767.5 433.296,-16777.5 "/>
    <polygon style="fill: none; fill-opacity:0; stroke-width: 2; stroke: #000000" points="433.296,-16769.5 428.296,-16779.5 423.296,-16769.5 "/>
  </g>
</svg>
